<mxfile host="app.diagrams.net" agent="Mozilla/5.0 (Macintosh; Intel Mac OS X 10_15_7) AppleWebKit/537.36 (KHTML, like Gecko) Chrome/131.0.0.0 Safari/537.36" version="25.0.3">
  <diagram name="Page-1" id="tRe7B3DHmldKfr8djt75">
    <mxGraphModel dx="1430" dy="714" grid="0" gridSize="10" guides="1" tooltips="1" connect="1" arrows="1" fold="1" page="1" pageScale="1" pageWidth="850" pageHeight="1100" math="0" shadow="0">
      <root>
        <mxCell id="0" />
        <mxCell id="1" parent="0" />
        <mxCell id="Nr38aAbhha9i5taI6ajx-12" style="edgeStyle=orthogonalEdgeStyle;rounded=0;orthogonalLoop=1;jettySize=auto;html=1;exitX=1;exitY=0.5;exitDx=0;exitDy=0;entryX=0;entryY=0.5;entryDx=0;entryDy=0;" edge="1" parent="1" source="Nr38aAbhha9i5taI6ajx-1" target="Nr38aAbhha9i5taI6ajx-7">
          <mxGeometry relative="1" as="geometry" />
        </mxCell>
        <mxCell id="Nr38aAbhha9i5taI6ajx-14" style="edgeStyle=orthogonalEdgeStyle;rounded=0;orthogonalLoop=1;jettySize=auto;html=1;exitX=0.25;exitY=1;exitDx=0;exitDy=0;entryX=0.25;entryY=0;entryDx=0;entryDy=0;" edge="1" parent="1" source="Nr38aAbhha9i5taI6ajx-1" target="Nr38aAbhha9i5taI6ajx-4">
          <mxGeometry relative="1" as="geometry" />
        </mxCell>
        <mxCell id="Nr38aAbhha9i5taI6ajx-1" value="" style="rounded=1;whiteSpace=wrap;html=1;fillColor=#d5e8d4;strokeColor=#82b366;" vertex="1" parent="1">
          <mxGeometry x="316" y="294" width="271" height="113" as="geometry" />
        </mxCell>
        <mxCell id="Nr38aAbhha9i5taI6ajx-3" value="MaxQ cluster" style="text;html=1;align=center;verticalAlign=middle;whiteSpace=wrap;rounded=0;fillColor=#fff2cc;strokeColor=#d6b656;" vertex="1" parent="1">
          <mxGeometry x="328" y="294" width="80" height="34" as="geometry" />
        </mxCell>
        <mxCell id="Nr38aAbhha9i5taI6ajx-11" style="edgeStyle=orthogonalEdgeStyle;rounded=0;orthogonalLoop=1;jettySize=auto;html=1;exitX=0.75;exitY=0;exitDx=0;exitDy=0;entryX=0.75;entryY=1;entryDx=0;entryDy=0;" edge="1" parent="1" source="Nr38aAbhha9i5taI6ajx-4" target="Nr38aAbhha9i5taI6ajx-1">
          <mxGeometry relative="1" as="geometry" />
        </mxCell>
        <mxCell id="Nr38aAbhha9i5taI6ajx-4" value="" style="rounded=1;whiteSpace=wrap;html=1;fillColor=#d5e8d4;strokeColor=#82b366;" vertex="1" parent="1">
          <mxGeometry x="316" y="480" width="271" height="113" as="geometry" />
        </mxCell>
        <mxCell id="Nr38aAbhha9i5taI6ajx-9" style="edgeStyle=orthogonalEdgeStyle;rounded=0;orthogonalLoop=1;jettySize=auto;html=1;exitX=1;exitY=0.5;exitDx=0;exitDy=0;entryX=0;entryY=0.5;entryDx=0;entryDy=0;" edge="1" parent="1" source="Nr38aAbhha9i5taI6ajx-6" target="Nr38aAbhha9i5taI6ajx-1">
          <mxGeometry relative="1" as="geometry" />
        </mxCell>
        <mxCell id="Nr38aAbhha9i5taI6ajx-6" value="Producer&lt;br&gt;application" style="rounded=0;whiteSpace=wrap;html=1;" vertex="1" parent="1">
          <mxGeometry x="113" y="320.5" width="120" height="60" as="geometry" />
        </mxCell>
        <mxCell id="Nr38aAbhha9i5taI6ajx-7" value="Consumer&lt;br&gt;application" style="rounded=0;whiteSpace=wrap;html=1;" vertex="1" parent="1">
          <mxGeometry x="669" y="320.5" width="120" height="60" as="geometry" />
        </mxCell>
        <mxCell id="Nr38aAbhha9i5taI6ajx-13" value="AMQP msg" style="text;html=1;align=center;verticalAlign=middle;whiteSpace=wrap;rounded=0;" vertex="1" parent="1">
          <mxGeometry x="241" y="355" width="65" height="19" as="geometry" />
        </mxCell>
        <mxCell id="Nr38aAbhha9i5taI6ajx-15" value="Metaq msg" style="text;html=1;align=center;verticalAlign=middle;whiteSpace=wrap;rounded=0;" vertex="1" parent="1">
          <mxGeometry x="319" y="431" width="65" height="19" as="geometry" />
        </mxCell>
        <mxCell id="Nr38aAbhha9i5taI6ajx-16" value="Metaq msg" style="text;html=1;align=center;verticalAlign=middle;whiteSpace=wrap;rounded=0;" vertex="1" parent="1">
          <mxGeometry x="522" y="435" width="65" height="19" as="geometry" />
        </mxCell>
        <mxCell id="Nr38aAbhha9i5taI6ajx-17" value="AMQP msg" style="text;html=1;align=center;verticalAlign=middle;whiteSpace=wrap;rounded=0;" vertex="1" parent="1">
          <mxGeometry x="594" y="355" width="65" height="19" as="geometry" />
        </mxCell>
        <mxCell id="Nr38aAbhha9i5taI6ajx-18" value="MetaQ cluster" style="text;html=1;align=center;verticalAlign=middle;whiteSpace=wrap;rounded=0;fillColor=#fff2cc;strokeColor=#d6b656;" vertex="1" parent="1">
          <mxGeometry x="330" y="480" width="80" height="34" as="geometry" />
        </mxCell>
        <mxCell id="Nr38aAbhha9i5taI6ajx-19" value="exchange" style="ellipse;whiteSpace=wrap;html=1;" vertex="1" parent="1">
          <mxGeometry x="359" y="342" width="90" height="28" as="geometry" />
        </mxCell>
        <mxCell id="Nr38aAbhha9i5taI6ajx-20" value="Queue" style="shape=cylinder3;whiteSpace=wrap;html=1;boundedLbl=1;backgroundOutline=1;size=15;" vertex="1" parent="1">
          <mxGeometry x="476" y="328" width="56" height="55" as="geometry" />
        </mxCell>
        <mxCell id="Nr38aAbhha9i5taI6ajx-21" value="Topic" style="shape=cylinder3;whiteSpace=wrap;html=1;boundedLbl=1;backgroundOutline=1;size=15;" vertex="1" parent="1">
          <mxGeometry x="364" y="523" width="56" height="55" as="geometry" />
        </mxCell>
        <mxCell id="Nr38aAbhha9i5taI6ajx-22" value="CID" style="ellipse;whiteSpace=wrap;html=1;" vertex="1" parent="1">
          <mxGeometry x="456" y="541" width="90" height="28" as="geometry" />
        </mxCell>
      </root>
    </mxGraphModel>
  </diagram>
</mxfile>
